# xmcd CD database file
#
# Track frame offsets:
#	150
#	18001
#	36002
#	55216
#	75224
#	95933
#	116674
#	135124
#	157189
#
# Disc length: 2344 seconds
#
# Revision: 3
# Processed by: cddbd v1.5.2PL0 Copyright (c) Steve Scherf et al.
# Submitted via: CDex 1.51
#
DISCID=64092609
DTITLE=Charlie Cruz - Dinámico
DYEAR=2008
DGENRE=Latin
TTITLE0=Tú Me Confudes
TTITLE1=Corazoncito
TTITLE2=Pregúntale
TTITLE3=Sigo Tratando
TTITLE4=Estoy Arrepentido
TTITLE5=Llegó El Momento
TTITLE6=No Me Ponga El Pie
TTITLE7=Como La Primera Vez
TTITLE8=Sigo Tratando (Versión Balada)
EXTD=YEAR: 2008
EXTT0=
EXTT1=
EXTT2=
EXTT3=
EXTT4=
EXTT5=
EXTT6=
EXTT7=
EXTT8=
PLAYORDER=
